<?xml version="1.0" encoding="UTF-8" standalone="no"?>
<!DOCTYPE svg PUBLIC "-//W3C//DTD SVG 1.1//EN"
 "http://www.w3.org/Graphics/SVG/1.1/DTD/svg11.dtd">
<!-- Generated by graphviz version 12.1.1 (20240910.0053)
 -->
<!-- Title: INFRA Pages: 1 -->
<svg width="394pt" height="80pt"
 viewBox="0.00 0.00 393.70 80.00" xmlns="http://www.w3.org/2000/svg" xmlns:xlink="http://www.w3.org/1999/xlink">
<g id="graph0" class="graph" transform="scale(1 1) rotate(0) translate(4 76)">
<title>INFRA</title>
<polygon fill="white" stroke="none" points="-4,4 -4,-76 389.7,-76 389.7,4 -4,4"/>
<!-- spring&#45;boot&#45;demo -->
<g id="node1" class="node">
<title>spring&#45;boot&#45;demo</title>
<path fill="#b7e0ff" stroke="black" stroke-width="2" d="M167.41,-72C167.41,-72 12,-72 12,-72 6,-72 0,-66 0,-60 0,-60 0,-12 0,-12 0,-6 6,0 12,0 12,0 167.41,0 167.41,0 173.41,0 179.41,-6 179.41,-12 179.41,-12 179.41,-60 179.41,-60 179.41,-66 173.41,-72 167.41,-72"/>
<text text-anchor="middle" x="89.71" y="-40.2" font-family="Arial" font-size="14.00">spring&#45;boot&#45;demo</text>
<text text-anchor="middle" x="89.71" y="-23.4" font-family="Arial" font-size="14.00">(Kubernetes::Deployment)</text>
</g>
<!-- spring&#45;boot&#45;demo&#45;container -->
<g id="node2" class="node">
<title>spring&#45;boot&#45;demo&#45;container</title>
<path fill="#b7e0ff" stroke="black" stroke-width="2" d="M373.7,-72C373.7,-72 209.72,-72 209.72,-72 203.72,-72 197.72,-66 197.72,-60 197.72,-60 197.72,-12 197.72,-12 197.72,-6 203.72,0 209.72,0 209.72,0 373.7,0 373.7,0 379.7,0 385.7,-6 385.7,-12 385.7,-12 385.7,-60 385.7,-60 385.7,-66 379.7,-72 373.7,-72"/>
<text text-anchor="middle" x="291.71" y="-40.2" font-family="Arial" font-size="14.00">spring&#45;boot&#45;demo&#45;container</text>
<text text-anchor="middle" x="291.71" y="-23.4" font-family="Arial" font-size="14.00">(Docker::Container)</text>
</g>
</g>
</svg>
